# xmcd CD database file
#
# Track frame offsets:
#	150
#	20172
#	44322
#	77161
#	101311
#	124009
#	153712
#	175987
#	198732
#	234912
#	279624
#
# Disc length: 4255 seconds
#
# Revision: 0
# Processed by: cddbd v1.5.1PL2 Copyright (c) Steve Scherf et al.
# Submitted via: CDex 1.51
#
DISCID=93109d0b
DTITLE=Thanatos - Heavenward
DYEAR=1900
DGENRE=エレクトロニック (一般)
TTITLE0=Dark Blue and [17-Chlorine]
TTITLE1=ANTARCTICA
TTITLE2=Libra -Extended Mix-
TTITLE3=Airforce
TTITLE4=Last Ocean
TTITLE5=Arcadia -original mix-
TTITLE6=Skyward
TTITLE7=Heavenward
TTITLE8=Ligaya -Thanatos Remix-
TTITLE9=Airwave -Thanatos Remix-
TTITLE10=ANTARCTICA -original mix-
EXTD=
EXTT0=
EXTT1=
EXTT2=
EXTT3=
EXTT4=
EXTT5=
EXTT6=
EXTT7=
EXTT8=
EXTT9=
EXTT10=
PLAYORDER=
